<svg width="684" height="509" viewBox="0 0 684 509" fill="none" xmlns="http://www.w3.org/2000/svg">
<path d="M134.559 275.865C116.705 255.948 105.73 228.54 105.73 198.409C105.73 137.465 150.635 88.0117 205.973 88.0117C261.311 88.0117 306.293 137.38 306.293 198.323L229.082 133.634L134.559 275.865Z" fill="#FDC858"/>
<path fill-rule="evenodd" clip-rule="evenodd" d="M206.051 55.1562C207.758 55.1562 209.142 56.6806 209.142 58.5609V70.4773C209.142 72.3577 207.758 73.882 206.051 73.882C204.343 73.882 202.959 72.3577 202.959 70.4773V58.5609C202.959 56.6806 204.343 55.1562 206.051 55.1562Z" fill="#007549"/>
<path fill-rule="evenodd" clip-rule="evenodd" d="M206.051 33.0273C207.758 33.0273 209.142 34.5517 209.142 36.432V48.8591C209.142 50.7395 207.758 52.2638 206.051 52.2638C204.343 52.2638 202.959 50.7395 202.959 48.8591V36.432C202.959 34.5517 204.343 33.0273 206.051 33.0273Z" fill="#007549"/>
<path fill-rule="evenodd" clip-rule="evenodd" d="M206.051 5.70312C207.758 5.70312 209.142 7.22745 209.142 9.10781V25.3652C209.142 27.2455 207.758 28.7699 206.051 28.7699C204.343 28.7699 202.959 27.2455 202.959 25.3652V9.10781C202.959 7.22745 204.343 5.70312 206.051 5.70312Z" fill="#007549"/>
<path fill-rule="evenodd" clip-rule="evenodd" d="M183.391 57.3411C185.07 57.0035 186.68 58.2294 186.987 60.0792L188.919 71.7403C189.226 73.5901 188.112 75.3633 186.433 75.7009C184.753 76.0384 183.143 74.8125 182.836 72.9627L180.904 61.3016C180.598 59.4518 181.711 57.6786 183.391 57.3411Z" fill="#007549"/>
<path fill-rule="evenodd" clip-rule="evenodd" d="M179.918 35.5469C181.598 35.2128 183.206 36.4421 183.509 38.2925L185.519 50.5494C185.822 52.3998 184.706 54.1707 183.026 54.5048C181.346 54.8389 179.738 53.6097 179.434 51.7593L177.425 39.5024C177.121 37.652 178.238 35.8811 179.918 35.5469Z" fill="#007549"/>
<path fill-rule="evenodd" clip-rule="evenodd" d="M175.589 8.65259C177.269 8.31796 178.877 9.54668 179.181 11.397L181.809 27.399C182.113 29.2494 180.997 31.0206 179.317 31.3553C177.637 31.6899 176.028 30.4612 175.725 28.6108L173.097 12.6088C172.793 10.7585 173.909 8.98723 175.589 8.65259Z" fill="#007549"/>
<path fill-rule="evenodd" clip-rule="evenodd" d="M161.55 63.7908C163.153 63.1439 164.929 64.0507 165.517 65.8163L169.226 76.9666C169.814 78.7322 168.99 80.6879 167.387 81.3348C165.784 81.9817 164.008 81.0749 163.421 79.3093L159.711 68.159C159.124 66.3934 159.947 64.4377 161.55 63.7908Z" fill="#007549"/>
<path fill-rule="evenodd" clip-rule="evenodd" d="M154.675 43.0198C156.279 42.3751 158.054 43.2844 158.639 45.0508L162.504 56.7119C163.089 58.4783 162.263 60.4328 160.659 61.0775C159.055 61.7222 157.281 60.8128 156.695 59.0464L152.831 47.3854C152.245 45.619 153.071 43.6644 154.675 43.0198Z" fill="#007549"/>
<path fill-rule="evenodd" clip-rule="evenodd" d="M146.169 17.3184C147.772 16.6711 149.548 17.5775 150.136 19.3429L155.237 34.664C155.824 36.4294 155.001 38.3853 153.398 39.0326C151.795 39.68 150.019 38.7736 149.431 37.0081L144.33 21.6871C143.743 19.9216 144.566 17.9657 146.169 17.3184Z" fill="#007549"/>
<path fill-rule="evenodd" clip-rule="evenodd" d="M140.972 74.341C142.45 73.3994 144.341 73.9555 145.196 75.5832L150.606 85.8823C151.461 87.5099 150.956 89.5927 149.478 90.5343C148 91.4759 146.109 90.9197 145.254 89.2921L139.844 78.993C138.989 77.3654 139.494 75.2826 140.972 74.341Z" fill="#007549"/>
<path fill-rule="evenodd" clip-rule="evenodd" d="M131.008 55.1839C132.489 54.2469 134.378 54.8088 135.229 56.439L140.871 67.2489C141.722 68.8791 141.212 70.9603 139.732 71.8974C138.251 72.8344 136.362 72.2725 135.511 70.6423L129.869 59.8324C129.018 58.2022 129.528 56.121 131.008 55.1839Z" fill="#007549"/>
<path fill-rule="evenodd" clip-rule="evenodd" d="M118.558 31.5243C120.036 30.583 121.927 31.1394 122.782 32.7672L130.202 46.8966C131.056 48.5244 130.551 50.6071 129.073 51.5484C127.595 52.4898 125.704 51.9333 124.849 50.3056L117.429 36.1761C116.575 34.5484 117.08 32.4657 118.558 31.5243Z" fill="#007549"/>
<path fill-rule="evenodd" clip-rule="evenodd" d="M122.443 88.6391C123.75 87.4287 125.7 87.614 126.799 89.053L133.755 98.1605C134.854 99.5996 134.686 101.747 133.379 102.958C132.073 104.168 130.122 103.983 129.023 102.544L122.068 93.4362C120.968 91.9972 121.137 89.8494 122.443 88.6391Z" fill="#007549"/>
<path fill-rule="evenodd" clip-rule="evenodd" d="M109.54 71.6992C110.848 70.4904 112.798 70.678 113.895 72.1183L121.16 81.6514C122.258 83.0917 122.088 85.2393 120.78 86.4481C119.472 87.6569 117.522 87.4693 116.424 86.029L109.159 76.4959C108.061 75.0556 108.232 72.908 109.54 71.6992Z" fill="#007549"/>
<path fill-rule="evenodd" clip-rule="evenodd" d="M93.5358 50.7672C94.8408 49.5548 96.7913 49.7371 97.8922 51.1743L107.476 63.6865C108.577 65.1238 108.411 67.2718 107.106 68.4842C105.801 69.6967 103.851 69.5144 102.75 68.0771L93.166 55.5649C92.0651 54.1276 92.2307 51.9796 93.5358 50.7672Z" fill="#007549"/>
<path fill-rule="evenodd" clip-rule="evenodd" d="M106.445 106.349C107.537 104.903 109.486 104.706 110.799 105.908L119.069 113.484C120.382 114.686 120.561 116.833 119.469 118.278C118.377 119.724 116.428 119.921 115.115 118.719L106.845 111.143C105.532 109.941 105.353 107.794 106.445 106.349Z" fill="#007549"/>
<path fill-rule="evenodd" clip-rule="evenodd" d="M91.082 92.1107C92.1854 90.6758 94.1361 90.4976 95.4391 91.7128L104.018 99.7138C105.321 100.929 105.483 103.077 104.379 104.512C103.276 105.947 101.325 106.125 100.022 104.91L91.4433 96.9092C90.1403 95.694 89.9786 93.5457 91.082 92.1107Z" fill="#007549"/>
<path fill-rule="evenodd" clip-rule="evenodd" d="M71.9804 74.5051C73.076 73.0629 75.0258 72.8721 76.3353 74.0787L87.6966 84.5481C89.0061 85.7548 89.1794 87.9021 88.0837 89.3442C86.988 90.7863 85.0383 90.9772 83.7288 89.7705L72.3675 79.3011C71.058 78.0944 70.8847 75.9472 71.9804 74.5051Z" fill="#007549"/>
<path fill-rule="evenodd" clip-rule="evenodd" d="M93.3926 126.735C94.2476 125.108 96.1388 124.552 97.6167 125.493L106.969 131.452C108.446 132.393 108.951 134.476 108.096 136.104C107.241 137.731 105.35 138.287 103.872 137.346L94.5205 131.387C93.0426 130.446 92.5376 128.363 93.3926 126.735Z" fill="#007549"/>
<path fill-rule="evenodd" clip-rule="evenodd" d="M75.9996 115.677C76.8505 114.047 78.7403 113.485 80.2206 114.422L90.0362 120.636C91.5165 121.573 92.0267 123.654 91.1758 125.284C90.3249 126.914 88.4352 127.476 86.9549 126.539L77.1393 120.326C75.659 119.389 75.1488 117.308 75.9996 115.677Z" fill="#007549"/>
<path fill-rule="evenodd" clip-rule="evenodd" d="M54.5174 101.966C55.3721 100.339 57.2633 99.7822 58.7413 100.724L71.5711 108.895C73.0492 109.836 73.5544 111.919 72.6997 113.547C71.8449 115.174 69.9538 115.731 68.4757 114.789L55.6459 106.618C54.1679 105.677 53.6626 103.594 54.5174 101.966Z" fill="#007549"/>
<path fill-rule="evenodd" clip-rule="evenodd" d="M83.805 149.432C84.3777 147.66 86.1459 146.735 87.7544 147.366L97.9564 151.367C99.5649 151.997 100.405 153.945 99.8318 155.716C99.2591 157.488 97.4909 158.412 95.8824 157.782L85.6804 153.781C84.0719 153.15 83.2322 151.203 83.805 149.432Z" fill="#007549"/>
<path fill-rule="evenodd" clip-rule="evenodd" d="M64.9533 141.836C65.5349 140.068 67.3078 139.154 68.9131 139.794L79.5788 144.05C81.1841 144.691 82.014 146.643 81.4323 148.411C80.8507 150.179 79.0779 151.093 77.4726 150.452L66.8068 146.197C65.2015 145.556 64.3717 143.604 64.9533 141.836Z" fill="#007549"/>
<path fill-rule="evenodd" clip-rule="evenodd" d="M41.6104 132.476C42.1903 130.707 43.9623 129.791 45.5682 130.43L59.48 135.962C61.0859 136.601 61.9177 138.553 61.3378 140.321C60.7579 142.09 58.9859 143.006 57.38 142.367L43.4681 136.834C41.8622 136.196 41.0305 134.244 41.6104 132.476Z" fill="#007549"/>
<path fill-rule="evenodd" clip-rule="evenodd" d="M77.9525 173.482C78.245 171.629 79.8458 170.389 81.528 170.711L92.1938 172.754C93.8759 173.076 95.0024 174.839 94.7099 176.692C94.4173 178.544 92.8165 179.785 91.1343 179.463L80.4686 177.42C78.7864 177.098 77.6599 175.335 77.9525 173.482Z" fill="#007549"/>
<path fill-rule="evenodd" clip-rule="evenodd" d="M58.244 169.647C58.538 167.795 60.1398 166.556 61.8217 166.88L72.8739 169.007C74.5558 169.331 75.6809 171.095 75.3868 172.948C75.0928 174.8 73.491 176.039 71.8091 175.715L60.7569 173.587C59.075 173.263 57.9499 171.499 58.244 169.647Z" fill="#007549"/>
<path fill-rule="evenodd" clip-rule="evenodd" d="M33.7439 164.882C34.0375 163.03 35.6391 161.79 37.3211 162.114L51.9285 164.923C53.6105 165.246 54.7359 167.01 54.4422 168.862C54.1485 170.715 52.547 171.954 50.865 171.631L36.2576 168.822C34.5756 168.498 33.4502 166.734 33.7439 164.882Z" fill="#007549"/>
<path fill-rule="evenodd" clip-rule="evenodd" d="M75.9746 198.323C75.9746 196.442 77.3587 194.918 79.0661 194.918H89.8865C91.5939 194.918 92.978 196.442 92.978 198.323C92.978 200.203 91.5939 201.727 89.8865 201.727H79.0661C77.3587 201.727 75.9746 200.203 75.9746 198.323Z" fill="#007549"/>
<path fill-rule="evenodd" clip-rule="evenodd" d="M55.957 198.323C55.957 196.442 57.3412 194.918 59.0486 194.918H70.3326C72.04 194.918 73.4242 196.442 73.4242 198.323C73.4242 200.203 72.04 201.727 70.3326 201.727H59.0486C57.3412 201.727 55.957 200.203 55.957 198.323Z" fill="#007549"/>
<path fill-rule="evenodd" clip-rule="evenodd" d="M31.0703 198.323C31.0703 196.442 32.4544 194.918 34.1618 194.918H49.0012C50.7086 194.918 52.0927 196.442 52.0927 198.323C52.0927 200.203 50.7086 201.727 49.0012 201.727H34.1618C32.4544 201.727 31.0703 200.203 31.0703 198.323Z" fill="#007549"/>
<path fill-rule="evenodd" clip-rule="evenodd" d="M94.7099 219.955C95.0024 221.807 93.8759 223.57 92.1938 223.892L81.528 225.935C79.8458 226.257 78.245 225.017 77.9525 223.164C77.6599 221.312 78.7864 219.549 80.4686 219.227L91.1343 217.184C92.8165 216.862 94.4173 218.102 94.7099 219.955Z" fill="#007549"/>
<path fill-rule="evenodd" clip-rule="evenodd" d="M75.3868 223.698C75.6809 225.55 74.5558 227.314 72.8739 227.638L61.8217 229.766C60.1398 230.09 58.538 228.851 58.244 226.998C57.9499 225.146 59.075 223.382 60.7569 223.058L71.8091 220.93C73.491 220.607 75.0928 221.846 75.3868 223.698Z" fill="#007549"/>
<path fill-rule="evenodd" clip-rule="evenodd" d="M54.4422 227.784C54.7359 229.637 53.6105 231.401 51.9285 231.724L37.3211 234.533C35.6391 234.856 34.0375 233.617 33.7439 231.765C33.4502 229.912 34.5756 228.148 36.2576 227.825L50.865 225.016C52.547 224.693 54.1485 225.932 54.4422 227.784Z" fill="#007549"/>
<path fill-rule="evenodd" clip-rule="evenodd" d="M99.8248 240.91C100.408 242.677 99.5805 244.631 97.9759 245.273L87.7739 249.359C86.1693 250.002 84.3955 249.09 83.812 247.323C83.2285 245.556 84.0563 243.602 85.6609 242.96L95.8629 238.874C97.4675 238.231 99.2413 239.143 99.8248 240.91Z" fill="#007549"/>
<path fill-rule="evenodd" clip-rule="evenodd" d="M81.4323 248.32C82.014 250.088 81.1841 252.04 79.5788 252.681L68.9131 256.937C67.3078 257.577 65.5349 256.663 64.9533 254.895C64.3717 253.128 65.2015 251.175 66.8068 250.535L77.4726 246.279C79.0779 245.638 80.8507 246.552 81.4323 248.32Z" fill="#007549"/>
<path fill-rule="evenodd" clip-rule="evenodd" d="M61.3326 256.308C61.9204 258.073 61.0973 260.029 59.4943 260.676L45.5824 266.294C43.9794 266.941 42.2034 266.035 41.6156 264.27C41.0278 262.504 41.8508 260.548 43.4539 259.901L57.3657 254.283C58.9688 253.636 60.7448 254.542 61.3326 256.308Z" fill="#007549"/>
<path fill-rule="evenodd" clip-rule="evenodd" d="M108.096 260.54C108.951 262.168 108.446 264.251 106.969 265.192L97.6167 271.15C96.1388 272.092 94.2476 271.536 93.3926 269.908C92.5376 268.281 93.0426 266.198 94.5205 265.256L103.872 259.298C105.35 258.356 107.241 258.913 108.096 260.54Z" fill="#007549"/>
<path fill-rule="evenodd" clip-rule="evenodd" d="M91.1758 271.361C92.0267 272.991 91.5165 275.072 90.0362 276.009L80.2206 282.223C78.7403 283.16 76.8505 282.598 75.9996 280.968C75.1488 279.338 75.659 277.256 77.1393 276.319L86.9549 270.106C88.4352 269.169 90.3249 269.731 91.1758 271.361Z" fill="#007549"/>
<path fill-rule="evenodd" clip-rule="evenodd" d="M72.6997 283.099C73.5544 284.727 73.0492 286.81 71.5711 287.751L58.7413 295.922C57.2633 296.864 55.3721 296.307 54.5174 294.679C53.6626 293.052 54.1679 290.969 55.6459 290.028L68.4757 281.856C69.9538 280.915 71.8449 281.471 72.6997 283.099Z" fill="#007549"/>
<path fill-rule="evenodd" clip-rule="evenodd" d="M328.219 149.432C328.791 151.203 327.952 153.15 326.343 153.781L316.141 157.782C314.533 158.412 312.764 157.488 312.192 155.716C311.619 153.945 312.459 151.997 314.067 151.367L324.269 147.366C325.878 146.735 327.646 147.66 328.219 149.432Z" fill="#007549"/>
<path fill-rule="evenodd" clip-rule="evenodd" d="M347.071 141.836C347.653 143.604 346.823 145.556 345.217 146.197L334.552 150.452C332.946 151.093 331.174 150.179 330.592 148.411C330.01 146.643 330.84 144.691 332.445 144.05L343.111 139.794C344.717 139.154 346.489 140.068 347.071 141.836Z" fill="#007549"/>
<path fill-rule="evenodd" clip-rule="evenodd" d="M318.63 126.735C319.485 128.363 318.98 130.446 317.502 131.387L308.15 137.346C306.672 138.287 304.781 137.731 303.926 136.104C303.071 134.476 303.576 132.393 305.054 131.452L314.406 125.493C315.883 124.552 317.775 125.108 318.63 126.735Z" fill="#007549"/>
<path fill-rule="evenodd" clip-rule="evenodd" d="M336.023 115.677C336.874 117.308 336.364 119.389 334.884 120.326L325.068 126.539C323.588 127.476 321.698 126.914 320.847 125.284C319.996 123.654 320.507 121.573 321.987 120.636L331.803 114.422C333.283 113.485 335.173 114.047 336.023 115.677Z" fill="#007549"/>
<path fill-rule="evenodd" clip-rule="evenodd" d="M357.506 101.966C358.361 103.594 357.856 105.677 356.378 106.618L343.548 114.789C342.07 115.731 340.179 115.174 339.324 113.547C338.469 111.919 338.975 109.836 340.453 108.895L353.282 100.724C354.76 99.7822 356.652 100.339 357.506 101.966Z" fill="#007549"/>
<path fill-rule="evenodd" clip-rule="evenodd" d="M305.57 106.337C306.668 107.777 306.498 109.924 305.19 111.133L296.997 118.709C295.69 119.918 293.74 119.731 292.642 118.291C291.544 116.85 291.714 114.703 293.022 113.494L301.214 105.918C302.522 104.709 304.472 104.897 305.57 106.337Z" fill="#007549"/>
<path fill-rule="evenodd" clip-rule="evenodd" d="M320.94 92.1107C322.043 93.5457 321.882 95.694 320.579 96.9092L312 104.91C310.697 106.125 308.746 105.947 307.643 104.512C306.539 103.077 306.701 100.929 308.004 99.7138L316.583 91.7128C317.886 90.4976 319.837 90.6758 320.94 92.1107Z" fill="#007549"/>
<path fill-rule="evenodd" clip-rule="evenodd" d="M340.043 74.5051C341.138 75.9472 340.965 78.0944 339.656 79.3011L328.294 89.7705C326.985 90.9772 325.035 90.7863 323.939 89.3442C322.844 87.9021 323.017 85.7548 324.326 84.5481L335.688 74.0787C336.997 72.8721 338.947 73.0629 340.043 74.5051Z" fill="#007549"/>
<path fill-rule="evenodd" clip-rule="evenodd" d="M289.579 88.6391C290.885 89.8494 291.053 91.9972 289.954 93.4362L282.998 102.544C281.899 103.983 279.949 104.168 278.643 102.958C277.336 101.747 277.168 99.5996 278.267 98.1605L285.223 89.053C286.322 87.614 288.272 87.4287 289.579 88.6391Z" fill="#007549"/>
<path fill-rule="evenodd" clip-rule="evenodd" d="M302.483 71.6992C303.791 72.908 303.961 75.0556 302.863 76.4959L295.598 86.029C294.501 87.4693 292.551 87.6569 291.243 86.4481C289.935 85.2393 289.765 83.0917 290.862 81.6514L298.127 72.1183C299.225 70.678 301.175 70.4904 302.483 71.6992Z" fill="#007549"/>
<path fill-rule="evenodd" clip-rule="evenodd" d="M318.478 50.7584C319.788 51.9651 319.961 54.1124 318.866 55.5545L309.359 68.0667C308.263 69.5088 306.314 69.6997 305.004 68.493C303.695 67.2863 303.521 65.1391 304.617 63.697L314.124 51.1847C315.219 49.7426 317.169 49.5518 318.478 50.7584Z" fill="#007549"/>
<path fill-rule="evenodd" clip-rule="evenodd" d="M271.052 74.341C272.53 75.2826 273.035 77.3654 272.18 78.993L266.77 89.2921C265.915 90.9197 264.024 91.4759 262.546 90.5343C261.068 89.5927 260.563 87.5099 261.418 85.8823L266.828 75.5832C267.683 73.9555 269.574 73.3994 271.052 74.341Z" fill="#007549"/>
<path fill-rule="evenodd" clip-rule="evenodd" d="M281.015 55.1839C282.495 56.121 283.005 58.2022 282.155 59.8324L276.513 70.6423C275.662 72.2725 273.772 72.8344 272.292 71.8974C270.811 70.9603 270.301 68.8791 271.152 67.2489L276.794 56.439C277.645 54.8088 279.535 54.2469 281.015 55.1839Z" fill="#007549"/>
<path fill-rule="evenodd" clip-rule="evenodd" d="M293.466 31.5243C294.944 32.4657 295.449 34.5484 294.594 36.1761L287.175 50.3056C286.32 51.9333 284.429 52.4898 282.951 51.5484C281.473 50.6071 280.967 48.5244 281.822 46.8966L289.242 32.7672C290.097 31.1394 291.988 30.583 293.466 31.5243Z" fill="#007549"/>
<path fill-rule="evenodd" clip-rule="evenodd" d="M250.473 63.7908C252.076 64.4377 252.9 66.3934 252.312 68.159L248.603 79.3093C248.015 81.0749 246.239 81.9817 244.636 81.3348C243.033 80.6879 242.21 78.7322 242.797 76.9666L246.507 65.8163C247.094 64.0507 248.87 63.1439 250.473 63.7908Z" fill="#007549"/>
<path fill-rule="evenodd" clip-rule="evenodd" d="M257.349 43.0198C258.953 43.6644 259.778 45.619 259.193 47.3854L255.329 59.0464C254.743 60.8128 252.968 61.7222 251.364 61.0775C249.761 60.4328 248.935 58.4783 249.52 56.7119L253.385 45.0508C253.97 43.2844 255.745 42.3751 257.349 43.0198Z" fill="#007549"/>
<path fill-rule="evenodd" clip-rule="evenodd" d="M265.853 17.3184C267.456 17.9657 268.279 19.9216 267.692 21.6871L262.591 37.0081C262.003 38.7736 260.227 39.68 258.624 39.0326C257.021 38.3853 256.198 36.4294 256.786 34.664L261.887 19.3429C262.474 17.5775 264.25 16.6711 265.853 17.3184Z" fill="#007549"/>
<path fill-rule="evenodd" clip-rule="evenodd" d="M228.632 57.3411C230.312 57.6786 231.425 59.4518 231.118 61.3016L229.186 72.9627C228.88 74.8125 227.269 76.0384 225.59 75.7009C223.91 75.3633 222.797 73.5901 223.103 71.7403L225.036 60.0792C225.342 58.2294 226.952 57.0035 228.632 57.3411Z" fill="#007549"/>
<path fill-rule="evenodd" clip-rule="evenodd" d="M232.104 35.5469C233.784 35.8811 234.9 37.652 234.597 39.5024L232.588 51.7593C232.284 53.6097 230.676 54.8389 228.996 54.5048C227.316 54.1707 226.199 52.3998 226.503 50.5494L228.512 38.2925C228.816 36.4421 230.424 35.2128 232.104 35.5469Z" fill="#007549"/>
<path fill-rule="evenodd" clip-rule="evenodd" d="M236.434 8.65259C238.114 8.98723 239.23 10.7585 238.926 12.6088L236.298 28.6108C235.994 30.4612 234.386 31.6899 232.706 31.3553C231.026 31.0206 229.91 29.2494 230.214 27.399L232.842 11.397C233.146 9.54667 234.754 8.31795 236.434 8.65259Z" fill="#007549"/>
<path fill-rule="evenodd" clip-rule="evenodd" d="M7.0332 505.338C7.0332 503.458 8.41733 501.934 10.1247 501.934H117.864C119.572 501.934 120.956 503.458 120.956 505.338C120.956 507.219 119.572 508.743 117.864 508.743H10.1247C8.41733 508.743 7.0332 507.219 7.0332 505.338Z" fill="#355B3E"/>
<path fill-rule="evenodd" clip-rule="evenodd" d="M128.299 505.338C128.299 503.458 129.683 501.934 131.39 501.934H285.58C287.288 501.934 288.672 503.458 288.672 505.338C288.672 507.219 287.288 508.743 285.58 508.743H131.39C129.683 508.743 128.299 507.219 128.299 505.338Z" fill="#355B3E"/>
<path fill-rule="evenodd" clip-rule="evenodd" d="M547.51 505.338C547.51 503.458 548.894 501.934 550.601 501.934H564.59C566.298 501.934 567.682 503.458 567.682 505.338C567.682 507.219 566.298 508.743 564.59 508.743H550.601C548.894 508.743 547.51 507.219 547.51 505.338Z" fill="#355B3E"/>
<path fill-rule="evenodd" clip-rule="evenodd" d="M574.947 505.338C574.947 503.458 576.331 501.934 578.039 501.934H644.97C646.678 501.934 648.062 503.458 648.062 505.338C648.062 507.219 646.678 508.743 644.97 508.743H578.039C576.331 508.743 574.947 507.219 574.947 505.338Z" fill="#355B3E"/>
<path fill-rule="evenodd" clip-rule="evenodd" d="M653.471 505.338C653.471 503.458 654.855 501.934 656.562 501.934H661.586C663.293 501.934 664.677 503.458 664.677 505.338C664.677 507.219 663.293 508.743 661.586 508.743H656.562C654.855 508.743 653.471 507.219 653.471 505.338Z" fill="#355B3E"/>
<path fill-rule="evenodd" clip-rule="evenodd" d="M229.036 130.604C229.859 130.476 230.694 130.718 231.353 131.276L316.061 203.03C317.414 204.176 317.667 206.314 316.627 207.804C315.586 209.295 313.645 209.574 312.291 208.427L230.085 138.793L80.3952 362.576C79.3826 364.09 77.4472 364.413 76.0726 363.298C74.6979 362.183 74.4044 360.051 75.4171 358.537L226.979 131.956C227.472 131.219 228.214 130.732 229.036 130.604Z" fill="#007549"/>
<path fill-rule="evenodd" clip-rule="evenodd" d="M383.429 98.3254C384.3 98.2299 385.167 98.5452 385.814 99.1931L569.606 283.046C570.869 284.31 570.963 286.463 569.815 287.855C568.667 289.247 566.712 289.351 565.448 288.086L384.193 106.77L277.944 265.625C276.932 267.139 274.996 267.462 273.622 266.347C272.247 265.232 271.953 263.101 272.966 261.587L381.247 99.6941C381.765 98.9182 382.559 98.4209 383.429 98.3254Z" fill="#007549"/>
<path fill-rule="evenodd" clip-rule="evenodd" d="M303.03 191.978C304.462 193.002 304.87 195.11 303.941 196.688L294.666 212.434C293.863 213.798 292.295 214.347 290.925 213.743L269.697 204.392L261.037 218.919C260.269 220.206 258.814 220.766 257.486 220.284L240.67 214.189L232.192 222.864C231.327 223.749 230.08 224.014 228.978 223.548L206.378 213.981L189.183 221.492C187.905 222.05 186.446 221.612 185.603 220.417L178.028 209.693C176.98 208.208 177.223 206.069 178.571 204.915C179.918 203.76 181.861 204.028 182.909 205.512L189.059 214.22L205.22 207.161C205.942 206.846 206.745 206.841 207.469 207.148L229.396 216.43L237.799 207.832C238.624 206.988 239.8 206.704 240.87 207.092L257.168 213.001L265.916 198.329C266.722 196.975 268.283 196.435 269.648 197.036L290.862 206.381L298.754 192.982C299.683 191.404 301.597 190.955 303.03 191.978Z" fill="#007549"/>
<path fill-rule="evenodd" clip-rule="evenodd" d="M418.97 162.027C419.647 160.926 420.844 160.36 422.035 160.577L451.868 166.025C453.553 166.332 454.692 168.085 454.412 169.94C454.133 171.795 452.541 173.05 450.857 172.742L422.978 167.652L412.573 184.571C411.638 186.092 409.776 186.522 408.365 185.542L392.116 174.261L369.36 187.786C367.859 188.678 365.985 188.063 365.173 186.411L357.714 171.24L336.511 176.617C334.847 177.039 333.187 175.895 332.804 174.063C332.421 172.23 333.459 170.403 335.123 169.981L358.619 164.023C359.973 163.679 361.369 164.374 362.031 165.72L369.14 180.179L390.769 167.324C391.751 166.74 392.942 166.784 393.886 167.44L409.131 178.025L418.97 162.027Z" fill="#007549"/>
<path fill-rule="evenodd" clip-rule="evenodd" d="M446.417 90.4802C446.417 71.4062 460.399 56.0078 477.718 56.0078C489.39 56.0078 499.656 63.1243 504.998 73.6173C506.619 73.2356 508.303 73.0312 510.025 73.0312C519.188 73.0312 527.193 78.7928 531.08 87.2252C531.746 87.1275 532.433 87.0755 533.134 87.0755C541.72 87.0755 548.746 94.8134 548.746 104.269C548.746 106.638 548.262 108.958 547.499 110.953C547.016 112.215 545.894 113.036 544.65 113.036H434.592C433.577 113.036 432.627 112.488 432.049 111.569C431.472 110.65 431.341 109.478 431.698 108.432C434.215 101.068 439.649 95.3905 446.511 93.0119C446.451 92.1784 446.417 91.3337 446.417 90.4802ZM477.718 62.8172C463.814 62.8172 452.6 75.1669 452.6 90.4802C452.6 91.9601 452.734 93.4843 452.952 95.0822C453.199 96.8974 452.095 98.6017 450.456 98.9352C446.056 99.8307 442.294 102.485 439.766 106.227H542.381C542.499 105.58 542.563 104.919 542.563 104.269C542.563 98.5741 538.305 93.8849 533.134 93.8849C532.083 93.8849 531.099 94.0786 530.247 94.3911C528.661 94.9734 526.942 94.0613 526.367 92.3323C523.945 85.0512 517.514 79.8406 510.025 79.8406C508.05 79.8406 506.139 80.203 504.356 80.8575C502.853 81.4092 501.214 80.6205 500.561 79.0308C496.64 69.4851 487.827 62.8172 477.718 62.8172Z" fill="#007549"/>
<path fill-rule="evenodd" clip-rule="evenodd" d="M562.659 149.464C562.659 134.646 573.549 122.652 587.004 122.652C599.609 122.652 609.962 133.177 611.221 146.689C611.544 146.667 611.87 146.655 612.2 146.655C621.238 146.655 628.663 154.721 628.663 164.785V165.211C628.663 167.091 627.278 168.616 625.571 168.616H555.316C553.609 168.616 552.225 167.091 552.225 165.211V164.871C552.225 157.772 556.717 151.897 562.67 150.365C562.662 150.064 562.659 149.764 562.659 149.464ZM587.004 129.462C576.964 129.462 568.842 138.407 568.842 149.464C568.842 150.686 568.911 151.724 569.091 152.712C569.272 153.712 569.037 154.749 568.45 155.538C567.863 156.327 566.985 156.784 566.059 156.784H565.75C562.698 156.784 560.055 158.852 558.954 161.806H622.12C620.929 156.986 616.919 153.465 612.2 153.465C611.158 153.465 610.155 153.655 609.181 153.991C608.242 154.314 607.22 154.126 606.427 153.484C605.635 152.843 605.167 151.824 605.167 150.741V149.464C605.167 138.407 597.045 129.462 587.004 129.462Z" fill="#007549"/>
<path d="M215.557 505.341C196.003 505.341 180.082 487.806 180.082 466.272C180.082 444.737 196.003 427.203 215.557 427.203C235.111 427.203 251.033 444.737 251.033 466.272C251.033 487.806 235.111 505.341 215.557 505.341Z" fill="#65CDD5"/>
<path fill-rule="evenodd" clip-rule="evenodd" d="M215.557 430.606C197.711 430.606 183.173 446.616 183.173 466.27C183.173 485.925 197.711 501.934 215.557 501.934C233.404 501.934 247.941 485.925 247.941 466.27C247.941 446.616 233.404 430.606 215.557 430.606ZM176.99 466.27C176.99 442.855 194.296 423.797 215.557 423.797C236.818 423.797 254.124 442.855 254.124 466.27C254.124 489.685 236.818 508.744 215.557 508.744C194.296 508.744 176.99 489.685 176.99 466.27Z" fill="#355B3E"/>
<path d="M215.557 486.7C205.355 486.7 197.008 477.507 197.008 466.272C197.008 455.036 205.355 445.844 215.557 445.844C225.759 445.844 234.106 455.036 234.106 466.272C234.106 477.507 225.759 486.7 215.557 486.7Z" fill="#FDC858"/>
<path fill-rule="evenodd" clip-rule="evenodd" d="M215.557 449.247C207.062 449.247 200.099 456.915 200.099 466.27C200.099 475.625 207.062 483.294 215.557 483.294C224.051 483.294 231.014 475.625 231.014 466.27C231.014 456.915 224.051 449.247 215.557 449.247ZM193.916 466.27C193.916 453.154 203.647 442.438 215.557 442.438C227.466 442.438 237.197 453.154 237.197 466.27C237.197 479.386 227.466 490.103 215.557 490.103C203.647 490.103 193.916 479.386 193.916 466.27Z" fill="#355B3E"/>
<path d="M215.557 472.995C212.156 472.995 209.451 469.931 209.451 466.271C209.451 462.526 212.234 459.547 215.557 459.547C218.958 459.547 221.663 462.611 221.663 466.271C221.663 469.931 218.958 472.995 215.557 472.995Z" fill="#FDC858"/>
<path fill-rule="evenodd" clip-rule="evenodd" d="M215.557 462.95C213.915 462.95 212.542 464.433 212.542 466.27C212.542 468.077 213.889 469.589 215.557 469.589C217.225 469.589 218.571 468.077 218.571 466.27C218.571 464.462 217.225 462.95 215.557 462.95ZM206.359 466.27C206.359 460.616 210.551 456.141 215.557 456.141C220.69 456.141 224.754 460.757 224.754 466.27C224.754 471.782 220.69 476.398 215.557 476.398C210.423 476.398 206.359 471.782 206.359 466.27Z" fill="#355B3E"/>
<path d="M499.203 347.363L491.938 316.976C489.078 304.804 479.649 295.952 468.288 294.59C435.827 290.76 396.487 288.547 350.578 288.547C298.022 288.547 217.256 292.973 192.988 296.037C188.582 296.548 184.795 299.697 183.017 304.208L168.41 341.83C161.686 355.108 157.59 369.749 156.43 384.899L156.121 469.506L172.429 469.846C172.352 468.655 172.274 467.463 172.274 466.271C172.274 439.97 191.596 418.691 215.478 418.691C239.36 418.691 258.682 439.97 258.682 466.271C258.682 467.803 258.605 469.335 258.451 470.782L372.064 472.315C371.832 470.357 371.678 468.314 371.678 466.271C371.678 439.97 391 418.691 414.882 418.691C438.764 418.691 458.086 439.97 458.086 466.271C458.086 468.655 457.931 470.953 457.622 473.251L503.454 473.762V385.58C503.686 372.728 502.14 359.875 499.203 347.363Z" fill="#3F7539"/>
<g opacity="0.36">
<path opacity="0.36" d="M164.777 469.506L165.087 384.899C166.246 369.749 170.342 355.108 177.066 341.83L191.674 304.208C193.451 299.697 197.238 296.633 201.644 296.037C225.217 293.058 301.964 288.802 354.52 288.547C353.206 288.547 351.892 288.547 350.578 288.547C298.022 288.547 217.256 292.973 192.988 296.037C188.582 296.548 184.795 299.697 183.017 304.208L168.41 341.83C161.686 355.108 157.59 369.749 156.43 384.899L156.121 469.506L172.429 469.846C172.429 469.761 172.429 469.761 172.429 469.676L164.777 469.506Z" fill="#3F7539"/>
<path opacity="0.36" d="M466.434 473.251C466.743 470.953 466.897 468.655 466.897 466.272C466.897 439.971 447.575 418.691 423.693 418.691C422.225 418.691 420.834 418.777 419.365 418.947C441.238 421.33 458.241 441.588 458.241 466.272C458.241 468.655 458.087 470.953 457.777 473.251L503.609 473.762V473.677L466.434 473.251Z" fill="#3F7539"/>
<path opacity="0.36" d="M267.185 470.697C267.34 469.25 267.417 467.718 267.417 466.186C267.417 439.885 248.095 418.605 224.213 418.605C222.744 418.605 221.353 418.691 219.885 418.861C241.757 421.244 258.761 441.502 258.761 466.186C258.761 467.718 258.683 469.25 258.529 470.697L372.142 472.229V472.144L267.185 470.697Z" fill="#3F7539"/>
</g>
<path opacity="0.36" d="M267.34 463.035H370.597V451.715H265.33C266.412 455.375 267.03 459.12 267.34 463.035Z" fill="#3F7539"/>
<g opacity="0.25">
<path opacity="0.25" d="M500.75 346.511L493.485 316.124C490.625 303.953 481.196 295.101 469.834 293.739C437.373 289.908 398.034 287.695 352.125 287.695C299.569 287.695 218.803 292.121 194.534 295.186C190.747 295.696 187.346 298.08 185.414 301.655C185.414 301.655 185.414 300.208 185.491 300.208C209.76 297.143 290.526 294.164 343.082 294.164C389.068 294.164 428.331 296.377 460.792 300.208C472.153 301.569 481.505 310.422 484.442 322.593L491.707 352.98C494.721 365.492 496.19 378.345 496.19 391.198V472.825L505.31 472.91V384.729C505.232 371.876 503.687 359.023 500.75 346.511Z" fill="#3F7539"/>
</g>
<path fill-rule="evenodd" clip-rule="evenodd" d="M192.651 292.651C217.095 289.567 297.969 285.141 350.58 285.141C396.574 285.141 436.026 287.358 468.619 291.203L468.624 291.204C481.239 292.716 491.741 302.552 494.93 316.111C494.931 316.115 494.932 316.118 494.933 316.122L502.194 346.494L502.198 346.509C505.194 359.275 506.782 372.426 506.547 385.612V473.76C506.547 474.669 506.217 475.54 505.631 476.18C505.044 476.819 504.25 477.174 503.424 477.165L457.592 476.654C456.699 476.644 455.853 476.209 455.273 475.46C454.693 474.712 454.435 473.724 454.566 472.75C454.852 470.619 454.996 468.487 454.996 466.27C454.996 441.849 437.058 422.094 414.883 422.094C392.709 422.094 374.771 441.849 374.771 466.27C374.771 468.128 374.912 470.019 375.131 471.873C375.247 472.851 374.972 473.837 374.376 474.575C373.781 475.313 372.924 475.73 372.028 475.717L258.414 474.185C257.538 474.174 256.708 473.753 256.13 473.028C255.551 472.303 255.28 471.342 255.382 470.383C255.521 469.078 255.593 467.679 255.593 466.27C255.593 441.849 237.655 422.094 215.48 422.094C193.305 422.094 175.368 441.849 175.368 466.27C175.368 467.32 175.436 468.39 175.514 469.602C175.576 470.556 175.271 471.495 174.673 472.188C174.075 472.882 173.24 473.267 172.372 473.249L156.064 472.908C154.375 472.873 153.024 471.351 153.031 469.49L153.34 384.884C153.341 384.793 153.344 384.702 153.351 384.612C154.543 369.033 158.744 353.981 165.632 340.327L180.176 302.868L180.183 302.851C182.386 297.261 187.103 293.301 192.651 292.651ZM350.58 291.95C298.088 291.95 217.45 296.374 193.341 299.418L193.313 299.422C190.059 299.799 187.21 302.132 185.858 305.554C185.857 305.557 185.856 305.56 185.855 305.562L171.254 343.167C171.212 343.276 171.164 343.383 171.112 343.487C164.619 356.308 160.659 370.434 159.523 385.049L159.227 466.164L169.185 466.372C169.185 466.338 169.184 466.304 169.184 466.27C169.184 438.088 189.891 415.285 215.48 415.285C241.069 415.285 261.776 438.088 261.776 466.27C261.776 466.653 261.771 467.037 261.762 467.421L368.66 468.862C368.614 468.007 368.588 467.141 368.588 466.27C368.588 438.088 389.294 415.285 414.883 415.285C440.473 415.285 461.179 438.088 461.179 466.27C461.179 467.49 461.141 468.692 461.065 469.883L500.364 470.321V385.579C500.364 385.556 500.364 385.534 500.365 385.511C500.59 373.005 499.087 360.465 496.213 348.219C496.213 348.217 496.212 348.215 496.212 348.213L488.95 317.841L488.947 317.827C486.415 307.049 478.061 299.186 467.958 297.974C435.629 294.159 396.402 291.95 350.58 291.95Z" fill="#355B3E"/>
<path d="M415.038 505.341C395.484 505.341 379.562 487.806 379.562 466.272C379.562 444.737 395.484 427.203 415.038 427.203C434.592 427.203 450.513 444.737 450.513 466.272C450.513 487.806 434.592 505.341 415.038 505.341Z" fill="#65CDD5"/>
<path fill-rule="evenodd" clip-rule="evenodd" d="M415.038 430.606C397.191 430.606 382.654 446.616 382.654 466.27C382.654 485.925 397.191 501.934 415.038 501.934C432.884 501.934 447.421 485.925 447.421 466.27C447.421 446.616 432.884 430.606 415.038 430.606ZM376.471 466.27C376.471 442.855 393.776 423.797 415.038 423.797C436.299 423.797 453.604 442.855 453.604 466.27C453.604 489.685 436.299 508.744 415.038 508.744C393.776 508.744 376.471 489.685 376.471 466.27Z" fill="#355B3E"/>
<path d="M415.037 486.7C404.835 486.7 396.488 477.507 396.488 466.272C396.488 455.036 404.835 445.844 415.037 445.844C425.239 445.844 433.587 455.036 433.587 466.272C433.587 477.507 425.239 486.7 415.037 486.7Z" fill="#FDC858"/>
<path fill-rule="evenodd" clip-rule="evenodd" d="M415.037 449.247C406.543 449.247 399.58 456.915 399.58 466.27C399.58 475.625 406.543 483.294 415.037 483.294C423.532 483.294 430.495 475.625 430.495 466.27C430.495 456.915 423.532 449.247 415.037 449.247ZM393.396 466.27C393.396 453.154 403.128 442.438 415.037 442.438C426.947 442.438 436.678 453.154 436.678 466.27C436.678 479.386 426.947 490.103 415.037 490.103C403.128 490.103 393.396 479.386 393.396 466.27Z" fill="#355B3E"/>
<path d="M415.037 472.995C411.637 472.995 408.932 469.931 408.932 466.271C408.932 462.526 411.714 459.547 415.037 459.547C418.438 459.547 421.143 462.611 421.143 466.271C421.143 469.931 418.438 472.995 415.037 472.995Z" fill="#FDC858"/>
<path fill-rule="evenodd" clip-rule="evenodd" d="M415.037 462.95C413.396 462.95 412.023 464.433 412.023 466.27C412.023 468.077 413.369 469.589 415.037 469.589C416.705 469.589 418.051 468.077 418.051 466.27C418.051 464.462 416.705 462.95 415.037 462.95ZM405.84 466.27C405.84 460.616 410.032 456.141 415.037 456.141C420.171 456.141 424.234 460.757 424.234 466.27C424.234 471.782 420.171 476.398 415.037 476.398C409.904 476.398 405.84 471.782 405.84 466.27Z" fill="#355B3E"/>
<path d="M156.122 477.083H147.698C144.22 477.083 141.438 474.018 141.438 470.188V442.695C141.438 438.865 144.22 435.801 147.698 435.801H156.122V477.083Z" fill="white"/>
<path fill-rule="evenodd" clip-rule="evenodd" d="M147.698 439.204C145.927 439.204 144.529 440.744 144.529 442.694V470.187C144.529 472.136 145.927 473.676 147.698 473.676H153.03V439.204H147.698ZM138.346 442.694C138.346 436.983 142.512 432.395 147.698 432.395H156.122C157.829 432.395 159.213 433.919 159.213 435.799V477.081C159.213 478.961 157.829 480.486 156.122 480.486H147.698C142.512 480.486 138.346 475.897 138.346 470.187V442.694Z" fill="#355B3E"/>
<path d="M157.359 424.735H154.267C151.949 424.735 150.094 422.692 150.094 420.139V399.03C150.094 396.476 151.949 394.434 154.267 394.434H157.359C159.677 394.434 161.532 396.476 161.532 399.03V420.139C161.532 422.692 159.677 424.735 157.359 424.735Z" fill="white"/>
<path fill-rule="evenodd" clip-rule="evenodd" d="M154.267 397.837C153.656 397.837 153.185 398.355 153.185 399.028V420.137C153.185 420.811 153.656 421.329 154.267 421.329H157.359C157.97 421.329 158.441 420.811 158.441 420.137V399.028C158.441 398.355 157.97 397.837 157.359 397.837H154.267ZM147.002 399.028C147.002 394.594 150.241 391.027 154.267 391.027H157.359C161.385 391.027 164.624 394.594 164.624 399.028V420.137C164.624 424.571 161.385 428.138 157.359 428.138H154.267C150.241 428.138 147.002 424.571 147.002 420.137V399.028Z" fill="#355B3E"/>
<path d="M509.561 483.635H476.327C472.463 483.635 469.371 480.23 469.371 475.974V470.016C469.371 465.76 472.463 462.355 476.327 462.355H509.561C513.425 462.355 516.517 465.76 516.517 470.016V475.974C516.517 480.145 513.348 483.635 509.561 483.635Z" fill="white"/>
<path d="M476.79 475.378C476.79 473.25 478.413 471.463 480.345 471.463H516.439V470.016C516.439 465.76 513.347 462.355 509.483 462.355H476.249C472.384 462.355 469.293 465.76 469.293 470.016V475.974C469.293 480.23 472.384 483.635 476.249 483.635H476.79V475.378Z" fill="#D8D8D8"/>
<path fill-rule="evenodd" clip-rule="evenodd" d="M476.327 465.762C474.17 465.762 472.462 467.643 472.462 470.018V475.977C472.462 478.352 474.17 480.232 476.327 480.232H509.561C511.64 480.232 513.425 478.267 513.425 475.977V470.018C513.425 467.643 511.718 465.762 509.561 465.762H476.327ZM466.279 470.018C466.279 463.882 470.755 458.953 476.327 458.953H509.561C515.132 458.953 519.608 463.882 519.608 470.018V475.977C519.608 482.028 515.055 487.042 509.561 487.042H476.327C470.755 487.042 466.279 482.113 466.279 475.977V470.018Z" fill="#355B3E"/>
<path d="M453.296 367.112H417.511C413.415 367.112 410.092 363.452 410.092 358.94V319.191C410.092 314.68 413.415 311.02 417.511 311.02H439.229C447.808 311.02 455.074 317.914 456.387 327.277L460.561 357.664C461.334 362.686 457.856 367.112 453.296 367.112Z" fill="#FDC858"/>
<path opacity="0.56" d="M425.24 328.976C425.24 324.465 428.564 320.805 432.66 320.805H454.378C451.364 314.932 445.644 311.102 439.229 311.102H417.511C413.415 311.102 410.092 314.762 410.092 319.273V359.022C410.092 363.534 413.415 367.194 417.511 367.194H425.24V328.976Z" fill="#FDC858"/>
<path fill-rule="evenodd" clip-rule="evenodd" d="M417.511 314.423C415.122 314.423 413.183 316.558 413.183 319.189V358.939C413.183 361.57 415.122 363.705 417.511 363.705H453.296C455.972 363.705 457.961 361.143 457.513 358.231C457.51 358.211 457.507 358.191 457.504 358.171L453.332 327.795C453.332 327.794 453.331 327.792 453.331 327.791C452.247 320.078 446.271 314.423 439.229 314.423H417.511ZM407 319.189C407 312.798 411.708 307.613 417.511 307.613H439.229C449.344 307.613 457.897 315.744 459.442 326.755L459.444 326.766L463.614 357.125C464.692 364.244 459.73 370.515 453.296 370.515H417.511C411.708 370.515 407 365.33 407 358.939V319.189Z" fill="#355B3E"/>
<path d="M386.287 366.26H307.299C303.202 366.26 299.879 362.6 299.879 358.089V318.339C299.879 313.828 303.202 310.168 307.299 310.168H386.287C390.383 310.168 393.707 313.828 393.707 318.339V358.089C393.629 362.6 390.383 366.26 386.287 366.26Z" fill="#FDC858"/>
<path opacity="0.56" d="M314.177 327.106C314.177 322.595 317.501 318.935 321.597 318.935H393.629V318.339C393.629 313.828 390.306 310.168 386.21 310.168H307.299C303.202 310.168 299.879 313.828 299.879 318.339V358.089C299.879 362.6 303.202 366.26 307.299 366.26H314.255V327.106H314.177Z" fill="#FDC858"/>
<path fill-rule="evenodd" clip-rule="evenodd" d="M307.298 313.571C304.909 313.571 302.97 315.707 302.97 318.338V358.087C302.97 360.718 304.909 362.854 307.298 362.854H386.287C388.616 362.854 390.555 360.777 390.615 358.051V318.338C390.615 315.707 388.676 313.571 386.287 313.571H307.298ZM296.787 318.338C296.787 311.946 301.495 306.762 307.298 306.762H386.287C392.09 306.762 396.798 311.946 396.798 318.338V358.087C396.798 358.109 396.798 358.13 396.797 358.152C396.69 364.434 392.142 369.663 386.287 369.663H307.298C301.495 369.663 296.787 364.479 296.787 358.087V318.338Z" fill="#355B3E"/>
<path d="M263.94 367.109H189.511C185.338 367.109 182.323 362.002 183.483 356.809L192.062 317.06C192.835 313.57 195.308 311.102 198.09 311.102H263.94C267.418 311.102 270.2 314.762 270.2 319.273V359.022C270.277 363.449 267.418 367.109 263.94 367.109Z" fill="#FDC858"/>
<path opacity="0.56" d="M197.394 365.154L205.973 325.404C206.745 321.914 209.219 319.446 212.001 319.446H270.199V319.191C270.199 314.68 267.417 311.02 263.939 311.02H198.089C195.307 311.02 192.834 313.488 192.061 316.978L183.482 356.727C182.4 361.919 185.337 367.027 189.51 367.027H197.162C197.239 366.431 197.316 365.835 197.394 365.154Z" fill="#FDC858"/>
<path fill-rule="evenodd" clip-rule="evenodd" d="M195.066 317.86L186.49 357.599L186.484 357.625C185.654 361.344 187.929 363.706 189.51 363.706H263.939C265.298 363.706 267.16 362.068 267.108 359.09C267.108 359.068 267.108 359.047 267.108 359.025V319.275C267.108 316.071 265.232 314.509 263.939 314.509H198.089C197.07 314.509 195.59 315.51 195.066 317.86ZM189.057 316.255C190.081 311.632 193.546 307.699 198.089 307.699H263.939C269.602 307.699 273.291 313.457 273.291 319.275V358.995C273.377 364.856 269.525 370.516 263.939 370.516H189.51C182.75 370.516 178.997 362.675 180.477 356.013L189.053 316.275L189.057 316.255Z" fill="#355B3E"/>
<path opacity="0.48" fill-rule="evenodd" clip-rule="evenodd" d="M270.818 292.546C270.818 292.076 271.164 291.695 271.591 291.695C280.829 291.695 288.285 299.907 288.285 310.081V471.122C288.285 471.592 287.939 471.973 287.513 471.973C287.086 471.973 286.74 471.592 286.74 471.122V310.081C286.74 300.847 279.975 293.398 271.591 293.398C271.164 293.398 270.818 293.017 270.818 292.546Z" fill="#355B3E"/>
<path fill-rule="evenodd" clip-rule="evenodd" d="M247.939 387.537C247.939 385.657 249.324 384.133 251.031 384.133H274.217C275.925 384.133 277.309 385.657 277.309 387.537C277.309 389.418 275.925 390.942 274.217 390.942H251.031C249.324 390.942 247.939 389.418 247.939 387.537Z" fill="#355B3E"/>
<path fill-rule="evenodd" clip-rule="evenodd" d="M368.277 385.58C368.277 383.7 369.661 382.176 371.369 382.176H391.155C392.862 382.176 394.246 383.7 394.246 385.58C394.246 387.461 392.862 388.985 391.155 388.985H371.369C369.661 388.985 368.277 387.461 368.277 385.58Z" fill="#355B3E"/>
<path d="M505.696 444.736H502.682V363.449H505.696C510.797 363.449 514.97 368.046 514.97 373.663V434.522C514.97 440.14 510.797 444.736 505.696 444.736Z" fill="#D8D8D8"/>
<path fill-rule="evenodd" clip-rule="evenodd" d="M499.59 363.452C499.59 361.571 500.974 360.047 502.681 360.047H505.696C512.504 360.047 518.062 366.168 518.062 373.666V434.524C518.062 442.022 512.504 448.143 505.696 448.143H502.681C500.974 448.143 499.59 446.619 499.59 444.738V363.452ZM505.773 366.857V441.333C509.131 441.287 511.879 438.233 511.879 434.524V373.666C511.879 369.957 509.131 366.903 505.773 366.857Z" fill="#355B3E"/>
<path fill-rule="evenodd" clip-rule="evenodd" d="M466.279 319.616C466.279 317.735 467.663 316.211 469.371 316.211H478.723C480.43 316.211 481.814 317.735 481.814 319.616C481.814 321.496 480.43 323.02 478.723 323.02H469.371C467.663 323.02 466.279 321.496 466.279 319.616Z" fill="#355B3E"/>
<path fill-rule="evenodd" clip-rule="evenodd" d="M470.145 334.256C470.145 332.376 471.529 330.852 473.236 330.852H482.588C484.295 330.852 485.679 332.376 485.679 334.256C485.679 336.137 484.295 337.661 482.588 337.661H473.236C471.529 337.661 470.145 336.137 470.145 334.256Z" fill="#355B3E"/>
<path fill-rule="evenodd" clip-rule="evenodd" d="M473.775 348.811C473.775 346.931 475.16 345.406 476.867 345.406H486.219C487.926 345.406 489.31 346.931 489.31 348.811C489.31 350.691 487.926 352.216 486.219 352.216H476.867C475.16 352.216 473.775 350.691 473.775 348.811Z" fill="#355B3E"/>
<path fill-rule="evenodd" clip-rule="evenodd" d="M475.322 363.452C475.322 361.571 476.706 360.047 478.414 360.047H487.843C489.55 360.047 490.934 361.571 490.934 363.452C490.934 365.332 489.55 366.856 487.843 366.856H478.414C476.706 366.856 475.322 365.332 475.322 363.452Z" fill="#355B3E"/>
<path d="M365.419 476.399H265.485C261.312 476.399 257.988 472.739 257.988 468.143C257.988 463.547 261.312 459.887 265.485 459.887H365.419C369.592 459.887 372.916 463.547 372.916 468.143C372.916 472.654 369.592 476.399 365.419 476.399Z" fill="white"/>
<path d="M365.419 476.399H265.485C261.312 476.399 257.988 472.739 257.988 468.143C257.988 463.547 261.312 459.887 265.485 459.887H365.419C369.592 459.887 372.916 463.547 372.916 468.143C372.916 472.654 369.592 476.399 365.419 476.399Z" fill="white"/>
<path d="M372.916 459.887H257.988V468.143H372.916V459.887Z" fill="#D8D8D8"/>
<path fill-rule="evenodd" clip-rule="evenodd" d="M265.485 463.294C263.019 463.294 261.08 465.429 261.08 468.145C261.08 470.861 263.019 472.997 265.485 472.997H365.419C367.864 472.997 369.824 470.799 369.824 468.145C369.824 465.429 367.885 463.294 365.419 463.294H265.485ZM254.896 468.145C254.896 461.669 259.604 456.484 265.485 456.484H365.419C371.299 456.484 376.007 461.669 376.007 468.145C376.007 474.514 371.32 479.806 365.419 479.806H265.485C259.604 479.806 254.896 474.622 254.896 468.145Z" fill="#355B3E"/>
<path fill-rule="evenodd" clip-rule="evenodd" d="M220.435 328.027C221.04 328.69 221.043 329.768 220.44 330.434L205.292 347.202C204.69 347.869 203.711 347.872 203.106 347.208C202.501 346.545 202.498 345.467 203.1 344.801L218.249 328.033C218.851 327.366 219.83 327.364 220.435 328.027Z" fill="#355B3E"/>
<path fill-rule="evenodd" clip-rule="evenodd" d="M238.517 323.682C239.123 324.344 239.127 325.422 238.526 326.089L218.121 348.73C217.52 349.397 216.541 349.402 215.935 348.739C215.329 348.077 215.326 346.999 215.927 346.332L236.331 323.691C236.933 323.023 237.911 323.019 238.517 323.682Z" fill="#355B3E"/>
<path fill-rule="evenodd" clip-rule="evenodd" d="M338.061 325.978C338.669 326.637 338.677 327.715 338.078 328.385L323.006 345.238C322.407 345.908 321.429 345.916 320.82 345.257C320.212 344.597 320.205 343.519 320.804 342.849L335.875 325.996C336.474 325.326 337.453 325.318 338.061 325.978Z" fill="#355B3E"/>
<path fill-rule="evenodd" clip-rule="evenodd" d="M356.228 321.725C356.834 322.387 356.838 323.465 356.236 324.132L335.832 346.773C335.231 347.44 334.252 347.444 333.646 346.782C333.04 346.12 333.037 345.042 333.638 344.375L354.042 321.734C354.644 321.066 355.622 321.062 356.228 321.725Z" fill="#355B3E"/>
<path fill-rule="evenodd" clip-rule="evenodd" d="M433.437 330.573C434.044 331.234 434.05 332.312 433.45 332.981L421.007 346.855C420.407 347.524 419.428 347.53 418.821 346.87C418.213 346.209 418.207 345.131 418.807 344.462L431.251 330.588C431.851 329.919 432.829 329.913 433.437 330.573Z" fill="#355B3E"/>
<path fill-rule="evenodd" clip-rule="evenodd" d="M448.352 326.998C448.96 327.658 448.967 328.736 448.367 329.406L431.595 348.131C430.996 348.801 430.017 348.808 429.409 348.148C428.802 347.488 428.795 346.41 429.394 345.74L446.166 327.015C446.766 326.345 447.744 326.338 448.352 326.998Z" fill="#355B3E"/>
<path d="M546.968 390.604L610.807 224.115C612.199 220.54 616.836 220.54 618.227 224.115L682.067 390.604C689.719 410.521 673.411 431.375 650.224 431.375H578.81C555.624 431.375 539.316 410.521 546.968 390.604Z" fill="#FDC858"/>
<path d="M546.968 390.604L610.807 224.115C612.199 220.54 616.836 220.54 618.227 224.115L682.067 390.604C689.719 410.521 673.411 431.375 650.224 431.375H578.81C555.624 431.375 539.316 410.521 546.968 390.604Z" fill="#FDC858"/>
<path opacity="0.56" d="M578.193 398.434L623.715 238.329L618.305 224.115C616.914 220.54 612.277 220.54 610.886 224.115L547.046 390.604C539.394 410.521 555.702 431.375 578.888 431.375H584.299C577.497 425.076 574.869 414.607 578.193 398.434Z" fill="#FDC858"/>
<path fill-rule="evenodd" clip-rule="evenodd" d="M614.517 251.352C616.225 251.352 617.609 252.876 617.609 254.756V505.341C617.609 507.221 616.225 508.746 614.517 508.746C612.81 508.746 611.426 507.221 611.426 505.341V254.756C611.426 252.876 612.81 251.352 614.517 251.352Z" fill="#355B3E"/>
<path fill-rule="evenodd" clip-rule="evenodd" d="M635.15 287.305C636.328 288.666 636.282 290.821 635.046 292.118L616.652 311.44C615.456 312.697 613.574 312.694 612.38 311.435L594.062 292.113C592.829 290.813 592.787 288.658 593.968 287.3C595.149 285.942 597.106 285.895 598.339 287.196L614.523 304.267L630.779 287.191C632.015 285.893 633.971 285.944 635.15 287.305Z" fill="#355B3E"/>
<path fill-rule="evenodd" clip-rule="evenodd" d="M590.413 324.069C591.594 322.711 593.551 322.665 594.784 323.965L614.519 344.777L634.253 323.965C635.486 322.665 637.443 322.711 638.624 324.069C639.805 325.428 639.763 327.583 638.53 328.883L616.657 351.95C615.461 353.211 613.576 353.211 612.381 351.95L590.508 328.883C589.275 327.583 589.232 325.428 590.413 324.069Z" fill="#355B3E"/>
<path fill-rule="evenodd" clip-rule="evenodd" d="M575.618 366.185C576.68 364.713 578.625 364.468 579.962 365.637L614.519 395.874L649.076 365.637C650.413 364.468 652.357 364.713 653.419 366.185C654.482 367.658 654.259 369.799 652.922 370.969L616.442 402.888C615.316 403.873 613.722 403.873 612.596 402.888L576.116 370.969C574.779 369.799 574.556 367.658 575.618 366.185Z" fill="#355B3E"/>
<path fill-rule="evenodd" clip-rule="evenodd" d="M388.892 1.59486C390.099 0.265253 392.057 0.265253 393.264 1.59486L400.352 9.40144L407.441 1.59486C408.648 0.265253 410.606 0.265253 411.813 1.59486C413.02 2.92448 413.02 5.0802 411.813 6.40981L402.538 16.6239C401.331 17.9535 399.374 17.9535 398.166 16.6239L388.892 6.40981C387.684 5.0802 387.684 2.92448 388.892 1.59486Z" fill="#007549"/>
<path fill-rule="evenodd" clip-rule="evenodd" d="M457.824 14.8822C459.026 13.5471 460.984 13.5382 462.196 14.8622L469.362 22.6887L476.46 14.8722C477.667 13.5426 479.624 13.5426 480.832 14.8722C482.039 16.2018 482.039 18.3575 480.832 19.6872L471.557 29.9012C470.353 31.2269 468.403 31.2314 467.194 29.9112L457.842 19.6971C456.63 18.373 456.622 16.2173 457.824 14.8822Z" fill="#007549"/>
<path fill-rule="evenodd" clip-rule="evenodd" d="M604.835 69.7706C606.042 68.441 608 68.441 609.207 69.7706L616.305 77.5872L623.471 69.7607C624.683 68.4366 626.64 68.4455 627.843 69.7807C629.045 71.1158 629.037 73.2715 627.825 74.5956L618.473 84.8096C617.264 86.1298 615.314 86.1254 614.11 84.7996L604.835 74.5856C603.628 73.256 603.628 71.1003 604.835 69.7706Z" fill="#007549"/>
<path fill-rule="evenodd" clip-rule="evenodd" d="M317.654 505.338C317.654 503.458 319.038 501.934 320.746 501.934H535.607C537.314 501.934 538.698 503.458 538.698 505.338C538.698 507.219 537.314 508.743 535.607 508.743H320.746C319.038 508.743 317.654 507.219 317.654 505.338Z" fill="#355B3E"/>
<path fill-rule="evenodd" clip-rule="evenodd" d="M294.469 505.338C294.469 503.458 295.853 501.934 297.56 501.934H323.606C325.314 501.934 326.698 503.458 326.698 505.338C326.698 507.219 325.314 508.743 323.606 508.743H297.56C295.853 508.743 294.469 507.219 294.469 505.338Z" fill="#355B3E"/>
</svg>
